# xmcd
#
# Track frame offsets:
#	150
#	24490
#	51655
#	75670
#	112067
#	136080
#	164200
#	188172
#	220650
#	243140
#
# Disc length: 3606 seconds
#
# Revision: 1
# Processed by: cddbd v1.5.2PL0 Copyright (c) Steve Scherf et al.
# Submitted via: audiograbber 1.83.01
#
DISCID=8a0e140a
DTITLE=Various Artist - The History Of The House Sound Of Chicago - The Aglo-American 
DTITLE=House
DYEAR=1986
DGENRE=House
TTITLE0=Nitro Deluxe - This Brutal House (US Version)
TTITLE1=Jack E Makossa - The Opera House
TTITLE2=Mel and Kim - Respectable (Tabloid Mix)
TTITLE3=Gary L - Time (Time to Party)
TTITLE4=Wired - To the Beat of the Drum (On the Burn Mix)
TTITLE5=2 Puerto Ricans, a Blackman and a Dominican - Do It Properly (DEF Mix)
TTITLE6=Lenny Dee and Tommy Musto - Everything Bamboo (Club Version)
TTITLE7=Wally Jump Jr. and The Criminal Element - Turn Me Loose
TTITLE8=Movement - The Movement
TTITLE9=Home Wreckers - Jackin' (EMU Style)
EXTD=
EXTT0=
EXTT1=
EXTT2=
EXTT3=
EXTT4=
EXTT5=
EXTT6=
EXTT7=
EXTT8=
EXTT9=
PLAYORDER=
